<svg xmlns="http://www.w3.org/2000/svg" viewBox="0 0 48 48" width="18px" height="18px">
  <path d="M 24 3 C 19.323344 3 15.5 6.8233481 15.5 11.5 C 15.5 13.620492 16.361027 15.507235 17.65625 17 L 13.726562 17 A 1.50015 1.50015 0 0 0 13.529297 16.982422 A 1.50015 1.50015 0 0 0 13.289062 17 L 7.5 17 C 5.0324991 17 3 19.032499 3 21.5 L 3 27.5 C 3 29.967501 5.0324991 32 7.5 32 L 10 32 L 10 38.253906 A 1.50015 1.50015 0 0 0 10 38.740234 L 10 44.5 A 1.50015 1.50015 0 1 0 13 44.5 L 13 40 L 35 40 L 35 44.5 A 1.50015 1.50015 0 1 0 38 44.5 L 38 38.746094 A 1.50015 1.50015 0 0 0 38 38.259766 L 38 32 L 40.5 32 C 42.967501 32 45 29.967501 45 27.5 L 45 21.5 C 45 19.032499 42.967501 17 40.5 17 L 32.476562 17 A 1.50015 1.50015 0 0 0 32.279297 16.982422 A 1.50015 1.50015 0 0 0 32.039062 17 L 30.34375 17 C 31.638973 15.507235 32.5 13.620492 32.5 11.5 C 32.5 6.8233481 28.676656 3 24 3 z M 24 6 C 27.055336 6 29.5 8.4446656 29.5 11.5 C 29.5 14.555334 27.055336 17 24 17 C 20.944664 17 18.5 14.555334 18.5 11.5 C 18.5 8.4446656 20.944664 6 24 6 z M 21.5 10 A 1.50015 1.50015 0 1 0 21.5 13 L 26.5 13 A 1.50015 1.50015 0 1 0 26.5 10 L 21.5 10 z M 7.5 20 L 10.888672 20 L 6.140625 28.138672 C 6.0525192 27.945658 6 27.731185 6 27.5 L 6 21.5 C 6 20.653501 6.6535009 20 7.5 20 z M 14.361328 20 L 20.138672 20 L 14.888672 29 L 11.746094 29 A 1.50015 1.50015 0 0 0 11.259766 29 L 9.1113281 29 L 14.361328 20 z M 23.611328 20 L 24 20 L 29.638672 20 L 24.388672 29 L 18.361328 29 L 23.611328 20 z M 33.111328 20 L 38.888672 20 L 33.638672 29 L 27.861328 29 L 33.111328 20 z M 41.859375 20.861328 C 41.947481 21.054342 42 21.268815 42 21.5 L 42 27.5 C 42 28.346499 41.346499 29 40.5 29 L 37.111328 29 L 41.859375 20.861328 z M 13 32 L 15.375 32 A 1.50015 1.50015 0 0 0 16.070312 32 L 24.875 32 A 1.50015 1.50015 0 0 0 25.570312 32 L 34.125 32 A 1.50015 1.50015 0 0 0 34.820312 32 L 35 32 L 35 37 L 13 37 L 13 32 z" fill="#FFFFFF" />
</svg>