<svg width="20" height="24" viewBox="0 0 20 24" fill="none" xmlns="http://www.w3.org/2000/svg">
<path d="M9.99999 0.333252C6.78869 0.333252 4.16666 2.95529 4.16666 6.16658C4.16666 9.37788 6.78869 11.9999 9.99999 11.9999C13.2113 11.9999 15.8333 9.37788 15.8333 6.16658C15.8333 2.95529 13.2113 0.333252 9.99999 0.333252ZM9.99999 2.08325C12.2655 2.08325 14.0833 3.90106 14.0833 6.16658C14.0833 8.43211 12.2655 10.2499 9.99999 10.2499C7.73446 10.2499 5.91666 8.43211 5.91666 6.16658C5.91666 3.90106 7.73446 2.08325 9.99999 2.08325ZM2.98746 14.3333C1.7159 14.3333 0.666656 15.3825 0.666656 16.6541V17.5416C0.666656 19.644 1.99623 21.2704 3.7622 22.2447C5.52816 23.219 7.76472 23.6666 9.99999 23.6666C12.2353 23.6666 14.4718 23.219 16.2378 22.2447C17.7435 21.414 18.8768 20.0864 19.1943 18.4166H19.3345V16.6541C19.3345 15.3825 18.2841 14.3333 17.0125 14.3333H2.98746ZM2.98746 16.0833H17.0125C17.3381 16.0833 17.5845 16.3284 17.5845 16.6541V16.6666H17.5833V17.5416C17.5833 18.9392 16.7983 19.9378 15.3924 20.7135C13.9865 21.4891 11.9939 21.9166 9.99999 21.9166C8.0061 21.9166 6.01348 21.4891 4.60757 20.7135C3.20167 19.9378 2.41666 18.9392 2.41666 17.5416V16.6541C2.41666 16.3284 2.66185 16.0833 2.98746 16.0833Z" fill="white"/>
</svg>
