<svg width="15" height="16" viewBox="0 0 15 16" fill="none" xmlns="http://www.w3.org/2000/svg">
<path d="M7.5 0.5C3.36452 0.5 0 3.86453 0 8C0 12.1355 3.36452 15.5 7.5 15.5C11.6355 15.5 15 12.1355 15 8C15 3.86453 11.6355 0.5 7.5 0.5ZM7.5 1.625C11.0275 1.625 13.875 4.47252 13.875 8C13.875 11.1428 11.6127 13.7399 8.625 14.2703V9.875H9.98438C10.1734 9.875 10.3332 9.73364 10.3564 9.54614L10.4971 8.42114C10.5106 8.31464 10.4768 8.20771 10.4055 8.12671C10.3346 8.04608 10.2326 8 10.125 8H8.625V6.6875C8.625 6.27387 8.96138 5.9375 9.375 5.9375H10.125C10.332 5.9375 10.5 5.76988 10.5 5.5625V4.29688C10.5 4.10262 10.3518 3.94059 10.1587 3.92334C10.1366 3.92146 9.60749 3.875 8.93774 3.875C7.28512 3.875 6.375 4.85607 6.375 6.6377V8H4.875C4.668 8 4.5 8.16762 4.5 8.375V9.5C4.5 9.70737 4.668 9.875 4.875 9.875H6.375V14.2703C3.38731 13.7399 1.125 11.1428 1.125 8C1.125 4.47252 3.97252 1.625 7.5 1.625Z" fill="white"/>
</svg>
