<svg width="18" height="18" viewBox="0 0 18 18" fill="none" xmlns="http://www.w3.org/2000/svg">
<path d="M6.0396 1.5C3.53949 1.5 1.50012 3.53936 1.50012 6.03947V11.9605C1.50012 14.4603 3.53942 16.5 6.0396 16.5H11.9606C14.4605 16.5 16.5001 14.4604 16.5001 11.9605V6.03947C16.5001 3.53929 14.4604 1.5 11.9606 1.5H6.0396ZM6.0396 2.68421H11.9606C13.8204 2.68421 15.3159 4.17939 15.3159 6.03947V11.9605C15.3159 13.8202 13.8203 15.3158 11.9606 15.3158H6.0396C4.17951 15.3158 2.68433 13.8202 2.68433 11.9605V6.03947C2.68433 4.17932 4.17944 2.68421 6.0396 2.68421ZM12.9475 4.26316C12.5113 4.26316 12.158 4.61645 12.158 5.05263C12.158 5.48882 12.5113 5.84211 12.9475 5.84211C13.3837 5.84211 13.737 5.48882 13.737 5.05263C13.737 4.61645 13.3837 4.26316 12.9475 4.26316ZM9.00012 5.05263C6.82717 5.05263 5.05275 6.82704 5.05275 9C5.05275 11.173 6.82717 12.9474 9.00012 12.9474C11.1731 12.9474 12.9475 11.173 12.9475 9C12.9475 6.82704 11.1731 5.05263 9.00012 5.05263ZM9.00012 6.23684C10.533 6.23684 11.7633 7.46717 11.7633 9C11.7633 10.5328 10.533 11.7632 9.00012 11.7632C7.46729 11.7632 6.23696 10.5328 6.23696 9C6.23696 7.46717 7.46729 6.23684 9.00012 6.23684Z" fill="white"/>
</svg>
