<svg width="13" height="12" viewBox="0 0 13 12" fill="none" xmlns="http://www.w3.org/2000/svg">
<path d="M6.50002 0.166626C3.28354 0.166626 0.666687 2.78348 0.666687 5.99996C0.666687 9.21644 3.28354 11.8333 6.50002 11.8333C9.7165 11.8333 12.3334 9.21644 12.3334 5.99996C12.3334 2.78348 9.7165 0.166626 6.50002 0.166626ZM6.50002 1.04163C9.24362 1.04163 11.4584 3.25637 11.4584 5.99996C11.4584 8.74355 9.24362 10.9583 6.50002 10.9583C3.75642 10.9583 1.54169 8.74355 1.54169 5.99996C1.54169 3.25637 3.75642 1.04163 6.50002 1.04163ZM8.5753 2.51249C8.53232 2.51011 8.48822 2.51228 8.44371 2.5199L5.23537 3.06734C4.95508 3.11518 4.75002 3.35833 4.75002 3.6427V6.84306C4.75002 6.96556 4.67706 7.07302 4.55747 7.1051L3.97414 7.32385C3.61831 7.43177 3.34982 7.73822 3.30023 8.11739C3.26057 8.41547 3.3562 8.74755 3.70241 8.99809C3.8812 9.12759 4.10141 9.19063 4.3222 9.19063H4.34442C5.11442 9.19063 5.62502 8.56674 5.62502 7.79382L5.62274 4.95463C5.62274 4.81171 5.72596 4.68971 5.86713 4.66638L7.91107 4.32971C8.0887 4.30054 8.25002 4.438 8.25002 4.61796V5.9823C8.25002 6.10772 8.17706 6.21575 8.05747 6.24491L7.47414 6.46651C7.11831 6.57151 6.84981 6.88038 6.80023 7.25663C6.77661 7.44038 6.80109 7.62431 6.89821 7.80806C7.07467 8.14173 7.43938 8.33329 7.81651 8.33329H7.84442C8.55171 8.33329 9.12502 7.75998 9.12502 7.05269V3.09469C9.12502 2.77848 8.87612 2.52913 8.5753 2.51249Z" fill="white"/>
</svg>
