<svg width="21" height="21" viewBox="0 0 21 21" fill="none" xmlns="http://www.w3.org/2000/svg">
<path d="M19.9132 0.250118C19.8608 0.251789 19.8088 0.258521 19.7577 0.270219L9.10526 2.69079C7.9999 2.94212 7.20837 3.93508 7.20837 5.06799V5.39595V8.10428V14.4911C6.51163 14.0661 5.68802 13.7918 4.77087 13.7918C3.70874 13.7918 2.73214 14.1076 1.98531 14.6678C1.23848 15.2279 0.708374 16.0759 0.708374 17.0418C0.708374 18.0076 1.23848 18.8557 1.98531 19.4158C2.73214 19.9759 3.70874 20.2918 4.77087 20.2918C5.833 20.2918 6.8096 19.9759 7.55644 19.4158C8.30327 18.8557 8.83337 18.0076 8.83337 17.0418C8.83337 17.0132 8.81313 16.9908 8.81221 16.9624C8.82683 16.8997 8.83394 16.8354 8.83337 16.771V8.7528L19.125 6.41369V12.3244C18.4283 11.8994 17.6047 11.6251 16.6875 11.6251C15.6254 11.6251 14.6488 11.941 13.902 12.5011C13.1551 13.0612 12.625 13.9093 12.625 14.8751C12.625 15.841 13.1551 16.689 13.902 17.2491C14.6488 17.8093 15.6254 18.1251 16.6875 18.1251C17.7497 18.1251 18.7263 17.8093 19.4731 17.2491C20.2199 16.689 20.75 15.841 20.75 14.8751C20.75 14.8465 20.7298 14.8242 20.7289 14.7958C20.7435 14.733 20.7506 14.6687 20.75 14.6043V5.39595V3.77095V1.06262C20.7501 0.953843 20.7283 0.846168 20.6859 0.745976C20.6436 0.645784 20.5815 0.555114 20.5035 0.479342C20.4255 0.40357 20.333 0.344237 20.2316 0.304863C20.1302 0.265488 20.0219 0.246871 19.9132 0.250118ZM19.125 2.08036V3.77095V4.74743L8.83337 7.08654V5.39595V5.06799C8.83337 4.68457 9.09101 4.36046 9.46496 4.27559C9.46532 4.27559 9.46567 4.27559 9.46602 4.27559L19.125 2.08036ZM16.6875 13.2501C17.4203 13.2501 18.0682 13.4792 18.4977 13.8013C18.9271 14.1234 19.125 14.4948 19.125 14.8751C19.125 15.2555 18.9271 15.6269 18.4977 15.9489C18.0682 16.271 17.4203 16.5001 16.6875 16.5001C15.9547 16.5001 15.3068 16.271 14.8774 15.9489C14.448 15.6269 14.25 15.2555 14.25 14.8751C14.25 14.4948 14.448 14.1234 14.8774 13.8013C15.3068 13.4792 15.9547 13.2501 16.6875 13.2501ZM4.77087 15.4168C5.50367 15.4168 6.15158 15.6459 6.58101 15.968C7.01045 16.29 7.20837 16.6614 7.20837 17.0418C7.20837 17.4221 7.01045 17.7935 6.58101 18.1156C6.15158 18.4377 5.50367 18.6668 4.77087 18.6668C4.03808 18.6668 3.39017 18.4377 2.96073 18.1156C2.5313 17.7935 2.33337 17.4221 2.33337 17.0418C2.33337 16.6614 2.5313 16.29 2.96073 15.968C3.39017 15.6459 4.03808 15.4168 4.77087 15.4168Z" fill="white"/>
</svg>
