<svg width="19" height="14" viewBox="0 0 19 14" fill="none" xmlns="http://www.w3.org/2000/svg">
<path d="M15.1953 0.730469C15.0834 0.730496 14.974 0.763922 14.8811 0.826469C14.7883 0.889016 14.7162 0.977841 14.6741 1.08158C14.6321 1.18532 14.6219 1.29925 14.6449 1.4088C14.668 1.51835 14.7232 1.61853 14.8035 1.69653C16.1614 3.05449 17 4.9256 17 7C17 9.06983 16.1646 10.937 14.8123 12.2939C14.7584 12.3459 14.7154 12.408 14.6858 12.4768C14.6563 12.5455 14.6407 12.6195 14.6401 12.6943C14.6395 12.7692 14.6538 12.8434 14.6822 12.9126C14.7106 12.9818 14.7526 13.0447 14.8056 13.0975C14.8586 13.1503 14.9216 13.192 14.991 13.2202C15.0603 13.2484 15.1346 13.2624 15.2094 13.2615C15.2842 13.2606 15.3581 13.2448 15.4268 13.215C15.4954 13.1852 15.5574 13.142 15.6091 13.0879C17.163 11.5288 18.125 9.37317 18.125 7C18.125 4.62165 17.1592 2.46141 15.5989 0.901123C15.5464 0.847128 15.4837 0.804203 15.4144 0.77489C15.3451 0.745577 15.2706 0.730472 15.1953 0.730469ZM3.78564 0.733398C3.63956 0.737656 3.50087 0.798597 3.39893 0.90332C1.8398 2.46325 0.875 4.62283 0.875 7C0.875 9.36876 1.83345 11.5212 3.38208 13.0798C3.43377 13.1339 3.49573 13.1772 3.56434 13.2071C3.63295 13.2369 3.70683 13.2528 3.78165 13.2538C3.85648 13.2547 3.93074 13.2408 4.00009 13.2127C4.06945 13.1846 4.1325 13.1429 4.18556 13.0901C4.23862 13.0374 4.28062 12.9746 4.3091 12.9054C4.33757 12.8362 4.35196 12.762 4.35141 12.6872C4.35087 12.6123 4.3354 12.5384 4.30591 12.4696C4.27642 12.4008 4.23351 12.3386 4.17969 12.2866C2.83182 10.93 2 9.06599 2 7C2 4.92667 2.83819 3.0563 4.19507 1.69873C4.27627 1.61966 4.33169 1.5179 4.35407 1.40678C4.37646 1.29567 4.36475 1.18039 4.3205 1.07604C4.27624 0.971697 4.2015 0.883153 4.10606 0.822011C4.01062 0.76087 3.89894 0.729983 3.78564 0.733398ZM5.36987 2.33008C5.22394 2.33472 5.08553 2.39591 4.98389 2.50073C3.83572 3.65301 3.125 5.24751 3.125 7C3.125 8.75044 3.83351 10.343 4.97876 11.4949C5.08395 11.6007 5.22688 11.6605 5.37612 11.661C5.52535 11.6614 5.66867 11.6026 5.77454 11.4974C5.8804 11.3923 5.94015 11.2493 5.94063 11.1001C5.94111 10.9508 5.88229 10.8075 5.7771 10.7017C4.83285 9.75199 4.25 8.44756 4.25 7C4.25 5.55074 4.83418 4.24465 5.78076 3.29468C5.8618 3.21547 5.91704 3.11364 5.93923 3.00251C5.96142 2.89139 5.94953 2.77615 5.90512 2.67189C5.86071 2.56764 5.78585 2.47922 5.69034 2.41823C5.59484 2.35724 5.48314 2.32652 5.36987 2.33008ZM13.6243 2.3396C13.5123 2.3392 13.4028 2.3722 13.3097 2.4344C13.2166 2.4966 13.1442 2.58515 13.1017 2.68873C13.0593 2.79232 13.0487 2.90622 13.0713 3.01586C13.0939 3.1255 13.1488 3.22589 13.2288 3.3042C14.17 4.25355 14.75 5.55511 14.75 7C14.75 8.44861 14.1668 9.7538 13.2214 10.7039C13.1676 10.7558 13.1247 10.818 13.0952 10.8868C13.0657 10.9556 13.0503 11.0296 13.0497 11.1044C13.0492 11.1792 13.0635 11.2534 13.092 11.3226C13.1205 11.3918 13.1625 11.4546 13.2156 11.5074C13.2686 11.5601 13.3317 11.6018 13.401 11.6299C13.4704 11.658 13.5446 11.672 13.6195 11.671C13.6943 11.67 13.7682 11.6542 13.8368 11.6243C13.9054 11.5944 13.9674 11.5512 14.019 11.4971C15.1655 10.3449 15.875 8.75164 15.875 7C15.875 5.25289 15.1686 3.66312 14.0271 2.51172C13.9749 2.45755 13.9123 2.4144 13.8431 2.38484C13.7739 2.35527 13.6995 2.33989 13.6243 2.3396ZM12.0137 3.91284C11.9018 3.91287 11.7925 3.94625 11.6997 4.0087C11.6069 4.07116 11.5349 4.15986 11.4927 4.26347C11.4506 4.36709 11.4403 4.48091 11.4632 4.5904C11.486 4.6999 11.541 4.80009 11.6211 4.87817C12.1647 5.42206 12.5 6.16835 12.5 7C12.5 7.83006 12.1663 8.57507 11.6248 9.11816C11.5709 9.1701 11.5279 9.23226 11.4983 9.30101C11.4688 9.36976 11.4532 9.44372 11.4526 9.51855C11.452 9.59338 11.4663 9.66758 11.4947 9.73681C11.5231 9.80604 11.5651 9.86891 11.6181 9.92173C11.6711 9.97455 11.7341 10.0163 11.8035 10.0444C11.8728 10.0726 11.9471 10.0866 12.0219 10.0857C12.0967 10.0848 12.1706 10.069 12.2393 10.0392C12.3079 10.0094 12.3699 9.96618 12.4216 9.91211C13.1649 9.1667 13.625 8.13344 13.625 7C13.625 5.8644 13.1629 4.82888 12.4172 4.08276C12.3647 4.0289 12.302 3.98611 12.2327 3.95693C12.1633 3.92774 12.0889 3.91275 12.0137 3.91284ZM6.94531 3.93335C6.79932 3.93876 6.66116 4.00075 6.56006 4.1062C5.82773 4.85024 5.375 5.87612 5.375 7C5.375 8.12526 5.82864 9.15197 6.56226 9.896C6.66705 10.0023 6.80977 10.0625 6.95901 10.0636C7.10824 10.0646 7.25178 10.0063 7.35803 9.90149C7.46429 9.79669 7.52456 9.65398 7.52559 9.50474C7.52662 9.3555 7.46832 9.21197 7.36353 9.10571C6.82889 8.56349 6.5 7.82399 6.5 7C6.5 6.17688 6.82839 5.43796 7.36206 4.89575C7.44274 4.81607 7.49745 4.71388 7.51903 4.60256C7.54061 4.49124 7.52805 4.37601 7.48299 4.27195C7.43793 4.1679 7.36248 4.07989 7.26654 4.01947C7.17059 3.95905 7.05862 3.92903 6.94531 3.93335ZM9.5 5.125C8.92188 5.125 8.41706 5.36205 8.09521 5.72412C7.77337 6.08619 7.625 6.54688 7.625 7C7.625 7.45312 7.77337 7.91381 8.09521 8.27588C8.41706 8.63795 8.92188 8.875 9.5 8.875C10.0781 8.875 10.5829 8.63795 10.9048 8.27588C11.2266 7.91381 11.375 7.45312 11.375 7C11.375 6.54688 11.2266 6.08619 10.9048 5.72412C10.5829 5.36205 10.0781 5.125 9.5 5.125ZM9.5 6.25C9.79688 6.25 9.94831 6.34107 10.064 6.47119C10.1796 6.60131 10.25 6.79688 10.25 7C10.25 7.20312 10.1796 7.39869 10.064 7.52881C9.94831 7.65893 9.79688 7.75 9.5 7.75C9.20312 7.75 9.05169 7.65893 8.93604 7.52881C8.82038 7.39869 8.75 7.20312 8.75 7C8.75 6.79688 8.82038 6.60131 8.93604 6.47119C9.05169 6.34107 9.20312 6.25 9.5 6.25Z" fill="white"/>
</svg>
