<svg width="13" height="12" viewBox="0 0 13 12" fill="none" xmlns="http://www.w3.org/2000/svg">
<path d="M6.49996 0.166626C3.28348 0.166626 0.666626 2.78348 0.666626 5.99996C0.666626 9.21644 3.28348 11.8333 6.49996 11.8333C9.71644 11.8333 12.3333 9.21644 12.3333 5.99996C12.3333 2.78348 9.71644 0.166626 6.49996 0.166626ZM6.49996 1.04163C9.24356 1.04163 11.4583 3.25637 11.4583 5.99996C11.4583 8.74355 9.24356 10.9583 6.49996 10.9583C3.75636 10.9583 1.54163 8.74355 1.54163 5.99996C1.54163 3.25637 3.75636 1.04163 6.49996 1.04163ZM5.65515 3.65409C5.44701 3.65675 5.23897 3.66659 5.03137 3.68372C4.47779 3.7294 3.92752 3.82678 3.38847 3.97538C3.33132 3.989 3.27749 4.01399 3.23021 4.04886C3.18292 4.08372 3.14314 4.12776 3.11324 4.17833C3.08334 4.2289 3.06393 4.28498 3.05617 4.34322C3.04841 4.40145 3.05246 4.46066 3.06807 4.51729C3.08369 4.57393 3.11055 4.62685 3.14705 4.67288C3.18356 4.71891 3.22896 4.75712 3.28055 4.78523C3.33214 4.81334 3.38886 4.83077 3.44734 4.83648C3.50581 4.84219 3.56483 4.83607 3.62089 4.81848C5.56551 4.2824 7.67373 4.48953 9.49296 5.43827C9.544 5.46594 9.60004 5.48318 9.6578 5.48898C9.71557 5.49477 9.77391 5.48902 9.82943 5.47204C9.88495 5.45506 9.93654 5.42721 9.98118 5.3901C10.0258 5.35298 10.0626 5.30736 10.0895 5.25588C10.1163 5.20439 10.1326 5.14809 10.1375 5.09023C10.1424 5.03238 10.1357 4.97414 10.1178 4.9189C10.0999 4.86366 10.0712 4.81254 10.0334 4.7685C9.99555 4.72446 9.94933 4.68839 9.89742 4.66239C8.57277 3.97158 7.11217 3.63552 5.65515 3.65409ZM5.71497 5.41947C5.54476 5.42072 5.37437 5.42779 5.20455 5.44055C4.7517 5.47459 4.30152 5.54956 3.85958 5.66557C3.80241 5.67863 3.74845 5.70305 3.7009 5.73738C3.65336 5.77172 3.6132 5.81525 3.58281 5.86541C3.55243 5.91557 3.53243 5.97133 3.52402 6.02936C3.51561 6.0874 3.51895 6.14654 3.53385 6.20326C3.54875 6.25998 3.57489 6.31313 3.61074 6.35954C3.64658 6.40596 3.69139 6.4447 3.7425 6.47345C3.79361 6.50221 3.84998 6.52039 3.90826 6.52693C3.96654 6.53347 4.02553 6.52823 4.08175 6.51152C5.64304 6.1017 7.32614 6.27124 8.78715 7.01965C8.83841 7.0473 8.89468 7.06444 8.95266 7.07006C9.01063 7.07568 9.06915 7.06966 9.12477 7.05237C9.18039 7.03507 9.232 7.00685 9.27656 6.96935C9.32113 6.93185 9.35776 6.88583 9.38431 6.83398C9.41086 6.78214 9.42679 6.72551 9.43117 6.66743C9.43554 6.60935 9.42828 6.55098 9.4098 6.49574C9.39132 6.4405 9.362 6.38951 9.32355 6.34576C9.28511 6.302 9.23831 6.26636 9.18591 6.24093C8.09933 5.68432 6.90641 5.41074 5.71497 5.41947ZM5.78446 7.17175C5.65449 7.17144 5.5246 7.17514 5.39482 7.18315C5.04874 7.20449 4.70398 7.25534 4.36487 7.33582C4.30766 7.34779 4.25343 7.37111 4.20538 7.4044C4.15733 7.43768 4.11644 7.48025 4.08512 7.5296C4.0538 7.57895 4.03268 7.63407 4.02302 7.69172C4.01335 7.74936 4.01533 7.80836 4.02884 7.86522C4.04236 7.92209 4.06713 7.97567 4.10169 8.02281C4.13625 8.06994 4.17991 8.10967 4.23008 8.13966C4.28025 8.16964 4.33593 8.18927 4.39381 8.19738C4.45169 8.20549 4.51062 8.20193 4.5671 8.18689C5.72774 7.91146 6.96568 8.04134 8.05343 8.5754C8.10501 8.60074 8.16108 8.61567 8.21843 8.61933C8.27578 8.623 8.3333 8.61533 8.38769 8.59677C8.44208 8.57821 8.49228 8.54911 8.53542 8.51114C8.57856 8.47318 8.6138 8.42708 8.63913 8.37549C8.66446 8.3239 8.67937 8.26783 8.68303 8.21048C8.68668 8.15312 8.679 8.09561 8.66042 8.04123C8.64185 7.98684 8.61274 7.93665 8.57476 7.89351C8.53678 7.85038 8.49068 7.81515 8.43909 7.78984C7.60368 7.37966 6.69428 7.17392 5.78446 7.17175Z" fill="white"/>
</svg>
