<svg width="18" height="18" viewBox="0 0 18 18" fill="none" xmlns="http://www.w3.org/2000/svg">
<path d="M3.79179 1.5C2.53355 1.5 1.50012 2.53343 1.50012 3.79167V14.2083C1.50012 15.4666 2.53355 16.5 3.79179 16.5H14.2085C15.4667 16.5 16.5001 15.4666 16.5001 14.2083V3.79167C16.5001 2.53343 15.4667 1.5 14.2085 1.5H3.79179ZM3.79179 2.75H14.2085C14.791 2.75 15.2501 3.20907 15.2501 3.79167V14.2083C15.2501 14.7909 14.791 15.25 14.2085 15.25H3.79179C3.20919 15.25 2.75012 14.7909 2.75012 14.2083V3.79167C2.75012 3.20907 3.20919 2.75 3.79179 2.75ZM10.0149 4.42643C9.85555 4.43329 9.70482 4.50082 9.59362 4.6152C9.48241 4.72958 9.41915 4.88215 9.41679 5.04167V10.6667C9.41679 11.5948 8.67829 12.3333 7.75012 12.3333C6.82196 12.3333 6.08346 11.5948 6.08346 10.6667C6.08346 9.7385 6.82196 9 7.75012 9C7.83294 9.00117 7.91517 8.98587 7.99202 8.95499C8.06888 8.9241 8.13883 8.87825 8.19781 8.8201C8.25679 8.76195 8.30363 8.69265 8.33559 8.61624C8.36756 8.53983 8.38402 8.45783 8.38402 8.375C8.38402 8.29217 8.36756 8.21017 8.33559 8.13376C8.30363 8.05735 8.25679 7.98805 8.19781 7.9299C8.13883 7.87175 8.06888 7.8259 7.99202 7.79501C7.91517 7.76413 7.83294 7.74883 7.75012 7.75C6.14662 7.75 4.83346 9.06317 4.83346 10.6667C4.83346 12.2702 6.14662 13.5833 7.75012 13.5833C9.35362 13.5833 10.6668 12.2702 10.6668 10.6667V7.47331C11.1952 7.88208 11.8261 8.16667 12.5418 8.16667C12.6246 8.16784 12.7068 8.15254 12.7837 8.12165C12.8605 8.09077 12.9305 8.04492 12.9895 7.98677C13.0485 7.92861 13.0953 7.85932 13.1273 7.78291C13.1592 7.7065 13.1757 7.62449 13.1757 7.54167C13.1757 7.45884 13.1592 7.37684 13.1273 7.30043C13.0953 7.22401 13.0485 7.15472 12.9895 7.09657C12.9305 7.03841 12.8605 6.99256 12.7837 6.96168C12.7068 6.9308 12.6246 6.9155 12.5418 6.91667C11.4987 6.91667 10.6668 6.08479 10.6668 5.04167C10.6656 4.95811 10.6476 4.87565 10.6139 4.79916C10.5803 4.72267 10.5316 4.65371 10.4708 4.59635C10.4101 4.53899 10.3384 4.4944 10.2601 4.46521C10.1818 4.43603 10.0984 4.42284 10.0149 4.42643Z" fill="white"/>
</svg>
