<svg width="18" height="18" viewBox="0 0 18 18" fill="none" xmlns="http://www.w3.org/2000/svg">
<path d="M4.20846 1.5C2.72015 1.5 1.50012 2.72003 1.50012 4.20833V13.7917C1.50012 15.28 2.72015 16.5 4.20846 16.5H13.7918C15.2801 16.5 16.5001 15.28 16.5001 13.7917V4.20833C16.5001 2.72003 15.2801 1.5 13.7918 1.5H4.20846ZM4.20846 2.75H13.7918C14.6043 2.75 15.2501 3.39581 15.2501 4.20833V13.7917C15.2501 14.6042 14.6043 15.25 13.7918 15.25H4.20846C3.39593 15.25 2.75012 14.6042 2.75012 13.7917V4.20833C2.75012 3.39581 3.39593 2.75 4.20846 2.75ZM4.76184 4.83333L7.98531 9.44027L4.7594 13.1667H5.61064L8.3621 9.97982L10.5919 13.1667H13.2742L9.84404 8.26432L12.8071 4.83333H11.9738L9.46806 7.7264L7.44413 4.83333H4.76184ZM6.0566 5.53971H7.12431L11.9795 12.4603H10.9117L6.0566 5.53971Z" fill="white"/>
</svg>
